<?xml version="1.0" standalone="no"?>
<!DOCTYPE svg PUBLIC "-//W3C//DTD SVG 20010904//EN"
 "http://www.w3.org/TR/2001/REC-SVG-20010904/DTD/svg10.dtd">
<svg version="1.0" xmlns="http://www.w3.org/2000/svg"
 width="401.000000pt" height="301.000000pt" viewBox="0 0 401.000000 301.000000"
 preserveAspectRatio="xMidYMid meet">

<g transform="translate(0.000000,301.000000) scale(0.100000,-0.100000)"
fill="#000000" stroke="none">
<path d="M2220 2563 c-240 -38 -516 -136 -705 -253 -227 -139 -443 -367 -538
-567 -28 -60 -32 -78 -32 -154 0 -76 3 -90 27 -127 33 -48 96 -88 175 -109
110 -29 346 -5 518 52 65 22 217 87 212 91 -1 2 -57 -8 -122 -22 -167 -35
-390 -44 -480 -19 -108 29 -136 66 -100 134 20 40 93 102 165 140 l60 32 0 71
0 71 33 -7 c146 -31 223 -29 347 10 41 13 97 37 124 54 49 31 65 29 66 -7 0
-7 7 -13 15 -13 10 0 15 10 15 30 0 35 -42 85 -80 96 -25 7 -25 6 -7 -14 11
-11 16 -25 13 -30 -3 -5 -35 -23 -70 -41 -72 -35 -176 -61 -246 -60 -51 0
-127 13 -138 24 -4 3 21 31 55 62 l63 55 -15 35 c-8 19 -15 41 -15 49 0 25
377 139 644 194 83 17 152 32 154 34 1 2 -13 17 -34 34 -35 29 -36 30 -15 41
17 9 36 7 94 -10 153 -45 229 -88 253 -143 l13 -31 1 32 c0 38 -38 86 -89 112
-43 22 -230 81 -257 81 -10 0 -34 -9 -52 -20 -19 -12 -31 -16 -27 -10 3 6 23
19 44 30 l38 19 109 -33 c129 -39 174 -59 209 -94 31 -30 39 -60 32 -113 -11
-80 -91 -196 -308 -444 -177 -203 -230 -292 -213 -362 35 -148 310 -119 779
82 115 49 448 216 442 221 -2 2 -39 -11 -83 -30 -238 -100 -546 -187 -752
-210 -146 -17 -176 -12 -180 30 -4 37 24 80 172 258 189 227 256 336 271 438
9 60 -15 141 -55 190 -40 48 -135 94 -233 113 -72 14 -235 18 -297 8z m45
-162 c-11 -5 -87 -23 -170 -41 -82 -17 -251 -65 -374 -105 -123 -41 -220 -70
-215 -65 12 12 239 89 394 134 170 49 436 105 365 77z m-775 -376 c-24 -25
-46 -45 -49 -45 -3 0 15 20 39 45 24 25 46 45 49 45 3 0 -15 -20 -39 -45z
m-77 -62 c-15 -5 -53 15 -53 28 0 5 15 2 33 -7 17 -10 27 -19 20 -21z m-63
-178 c0 -2 -23 -16 -51 -30 -28 -15 -72 -45 -97 -68 l-47 -41 39 41 c38 41
156 115 156 98z"/>
<path d="M3052 1437 c-26 -27 -29 -75 -6 -103 15 -18 15 -18 5 3 -19 39 -13
80 15 102 15 12 22 21 17 21 -5 0 -19 -10 -31 -23z"/>
<path d="M3154 1439 c28 -22 34 -63 15 -102 -10 -21 -10 -21 5 -3 24 29 20 79
-7 104 -13 12 -27 22 -31 22 -5 0 3 -9 18 -21z"/>
<path d="M3088 1423 c6 -2 18 -2 25 0 6 3 1 5 -13 5 -14 0 -19 -2 -12 -5z"/>
<path d="M3131 1404 c0 -11 3 -14 6 -6 3 7 2 16 -1 19 -3 4 -6 -2 -5 -13z"/>
<path d="M3088 1383 c6 -2 18 -2 25 0 6 3 1 5 -13 5 -14 0 -19 -2 -12 -5z"/>
<path d="M3098 1303 c6 -2 18 -2 25 0 6 3 1 5 -13 5 -14 0 -19 -2 -12 -5z"/>
<path d="M269 745 l-146 -285 92 0 93 0 22 55 22 55 150 0 149 0 24 -55 25
-55 100 0 c55 0 100 2 100 5 0 3 -63 131 -140 285 l-140 280 -103 0 -102 0
-146 -285z m289 48 c23 -53 40 -98 38 -100 -2 -2 -44 -2 -94 -1 l-90 3 46 98
c25 53 48 97 51 97 4 0 25 -44 49 -97z"/>
<path d="M950 745 l0 -285 90 0 90 0 0 285 0 285 -90 0 -90 0 0 -285z"/>
<path d="M1230 975 l0 -55 90 0 90 0 0 55 0 55 -90 0 -90 0 0 -55z"/>
<path d="M1510 745 l0 -285 85 0 86 0 6 30 c6 34 15 37 34 13 42 -50 173 -60
243 -19 51 30 71 58 87 119 16 66 -2 143 -47 196 -71 83 -210 89 -296 13 -17
-14 -18 -9 -18 101 l0 117 -90 0 -90 0 0 -285z m339 -1 c27 -34 36 -85 22
-127 -17 -50 -43 -70 -93 -70 -62 0 -88 34 -88 114 0 50 4 64 25 84 35 36 105
35 134 -1z"/>
<path d="M2730 745 l0 -285 90 0 90 0 0 37 0 36 23 -20 c46 -43 86 -55 162
-51 61 3 78 8 110 32 76 58 97 169 49 264 -55 112 -192 141 -306 66 l-38 -24
0 115 0 115 -90 0 -90 0 0 -285z m325 19 c41 -16 59 -118 30 -173 -32 -64
-134 -60 -161 5 -24 58 -13 134 23 162 18 13 80 16 108 6z"/>
<path d="M2286 859 c-58 -14 -103 -46 -115 -81 -6 -17 -11 -33 -11 -34 0 -2
38 -4 85 -4 70 0 85 3 85 15 0 18 39 35 81 35 33 0 69 -31 69 -59 0 -16 -11
-19 -102 -24 -120 -7 -169 -21 -209 -58 -39 -36 -41 -107 -5 -144 58 -58 221
-59 285 -1 24 21 28 20 35 -9 6 -24 9 -25 87 -25 l81 0 -4 148 c-3 169 -10
187 -81 224 -33 17 -63 22 -142 24 -55 2 -118 -1 -139 -7z m188 -246 c-10 -40
-32 -62 -71 -69 -50 -9 -85 9 -81 43 4 36 38 53 106 53 52 0 52 0 46 -27z"/>
<path d="M3530 863 c-78 -13 -140 -59 -140 -104 0 -17 8 -19 75 -19 66 0 77 3
99 25 44 44 136 24 136 -29 0 -22 -4 -23 -97 -29 -124 -8 -169 -21 -210 -62
-25 -25 -33 -42 -33 -68 0 -112 193 -158 312 -75 l27 19 7 -26 c6 -24 9 -25
86 -25 l79 0 -3 156 -3 156 -36 33 c-24 22 -54 37 -88 44 -50 11 -159 13 -211
4z m170 -237 c0 -36 -20 -65 -54 -76 -50 -16 -94 -5 -102 26 -11 44 16 60 109
63 35 1 47 -3 47 -13z"/>
<path d="M1230 665 l0 -195 90 0 90 0 0 195 0 195 -90 0 -90 0 0 -195z"/>
</g>
</svg>
