<?xml version="1.0" standalone="no"?>
<!DOCTYPE svg PUBLIC "-//W3C//DTD SVG 20010904//EN"
 "http://www.w3.org/TR/2001/REC-SVG-20010904/DTD/svg10.dtd">
<svg version="1.0" xmlns="http://www.w3.org/2000/svg"
 width="631.000000pt" height="394.000000pt" viewBox="0 0 631.000000 394.000000"
 preserveAspectRatio="xMidYMid meet">

<g transform="translate(0.000000,394.000000) scale(0.100000,-0.100000)"
fill="#000000" stroke="none">
<path d="M2420 3859 c-417 -47 -721 -86 -760 -97 -63 -18 -128 -57 -715 -437
-132 -85 -616 -394 -746 -477 -147 -93 -152 -97 -178 -159 -21 -48 -21 -56
-19 -738 l3 -689 30 -43 c24 -34 99 -86 385 -270 526 -337 895 -574 1038 -666
77 -51 152 -91 191 -103 44 -14 278 -44 780 -100 l716 -80 583 65 c320 35 646
72 725 80 203 23 224 31 430 163 161 104 452 290 487 312 22 14 149 95 281
180 132 85 286 184 343 220 275 176 262 166 290 222 l26 52 0 678 0 679 -24
47 c-18 35 -41 58 -88 88 -113 75 -258 168 -533 344 -148 94 -286 182 -305
195 -568 371 -681 438 -755 449 -65 10 -1466 166 -1479 165 -6 -1 -324 -37
-706 -80z m843 -72 c188 -135 401 -291 432 -314 6 -5 33 -24 60 -44 43 -31
593 -431 650 -473 27 -20 234 -170 263 -191 12 -9 31 -34 42 -55 19 -38 20
-60 20 -736 0 -687 0 -698 -21 -741 -17 -35 -50 -64 -192 -168 -95 -69 -181
-133 -192 -141 -49 -36 -605 -441 -650 -473 -27 -20 -54 -39 -60 -44 -5 -4
-57 -42 -115 -84 -58 -42 -136 -100 -175 -128 -38 -28 -93 -67 -120 -87 l-51
-35 -134 99 c-74 54 -187 136 -250 181 -63 46 -259 189 -435 317 -176 128
-407 296 -512 372 -157 113 -198 148 -220 186 l-28 47 0 695 0 695 27 45 c20
35 60 70 171 150 138 100 868 631 1212 882 88 65 164 118 168 118 5 0 55 -33
110 -73z"/>
</g>
</svg>
