<?xml version="1.0" standalone="no"?>
<!DOCTYPE svg PUBLIC "-//W3C//DTD SVG 20010904//EN"
 "http://www.w3.org/TR/2001/REC-SVG-20010904/DTD/svg10.dtd">
<svg version="1.0" xmlns="http://www.w3.org/2000/svg"
 width="1400.000000pt" height="732.000000pt" viewBox="0 0 1400.000000 732.000000"
 preserveAspectRatio="xMidYMid meet">

<g transform="translate(0.000000,732.000000) scale(0.100000,-0.100000)"
fill="#000000" stroke="none">
<path d="M8683 4375 c-132 -29 -249 -122 -306 -242 l-32 -68 0 -405 0 -405 32
-68 c61 -128 189 -223 333 -247 43 -7 199 -10 445 -8 357 4 383 5 436 25 157
59 260 176 288 327 14 76 14 658 1 746 -28 175 -158 307 -339 346 -92 19 -767
19 -858 -1z m813 -200 c31 -9 63 -28 86 -52 68 -69 68 -72 68 -465 0 -399 -1
-400 -77 -470 -63 -56 -98 -60 -493 -56 l-345 3 -48 28 c-55 33 -92 83 -106
147 -6 25 -11 181 -11 356 0 244 3 321 15 360 22 73 87 138 158 154 17 5 183
8 368 9 268 1 345 -2 385 -14z"/>
<path d="M5707 4363 c-4 -3 -7 -323 -7 -710 l0 -703 115 0 115 0 0 710 0 710
-108 0 c-60 0 -112 -3 -115 -7z"/>
<path d="M6237 4363 c-4 -3 -7 -48 -7 -100 l0 -93 596 0 596 0 -7 -31 c-19
-86 -85 -173 -159 -211 -22 -11 -209 -85 -415 -165 -207 -80 -407 -161 -444
-181 -175 -91 -239 -218 -253 -498 l-7 -134 756 0 757 0 0 95 0 95 -634 0
c-357 0 -637 4 -640 9 -8 13 13 121 31 156 20 38 61 83 93 100 14 7 187 75
385 150 445 169 466 178 535 225 77 53 127 111 165 194 41 89 55 153 62 289
l6 107 -705 0 c-387 0 -708 -3 -711 -7z"/>
<path d="M7877 4363 c-4 -3 -7 -323 -7 -710 l0 -703 115 0 115 0 0 710 0 710
-108 0 c-60 0 -112 -3 -115 -7z"/>
<path d="M4042 4078 l3 -283 27 -58 c47 -101 395 -671 430 -704 18 -18 60 -45
93 -60 55 -26 70 -28 175 -28 110 0 118 1 183 33 37 18 79 48 93 66 36 45 369
606 408 686 l31 65 3 283 3 282 -115 0 -116 0 0 -273 0 -272 -176 -305 c-96
-168 -183 -313 -192 -324 -54 -60 -190 -60 -244 0 -9 11 -97 154 -195 319
l-178 300 -3 278 -3 277 -115 0 -115 0 3 -282z"/>
<path d="M9860 4271 c-15 -29 -12 -46 10 -66 13 -12 27 -15 44 -11 43 11 47
82 5 94 -8 3 -6 -2 4 -10 38 -29 -1 -97 -40 -72 -24 15 -28 48 -8 68 9 9 12
16 6 16 -6 0 -15 -9 -21 -19z"/>
<path d="M9880 4246 c0 -27 31 -32 41 -6 9 20 2 30 -22 30 -13 0 -19 -7 -19
-24z m30 4 c0 -5 -2 -10 -4 -10 -3 0 -8 5 -11 10 -3 6 -1 10 4 10 6 0 11 -4
11 -10z"/>
</g>
</svg>
